<svg width="50" height="40" viewBox="0 0 50 40" fill="none" xmlns="http://www.w3.org/2000/svg">
<path d="M46.87 13.4167C45.041 14.0667 43.0636 14.253 41.1346 13.957C39.2057 13.6611 37.3924 12.8931 35.8753 11.7297C34.3582 10.5663 33.1902 9.04787 32.4875 7.32565C31.7848 5.60343 31.5719 3.73743 31.87 1.91335C26.7601 0.502764 21.3047 0.686852 16.3145 2.43826C11.3242 4.18967 7.06542 7.41493 4.17095 11.6348C1.27648 15.8546 -0.0992003 20.8438 0.248336 25.861C0.595873 30.8782 2.64808 35.6556 6.1 39.4833L6.55 39.9792H43.45L43.9 39.4833C47.0988 35.9294 49.0947 31.5506 49.6296 26.9135C50.1644 22.2764 49.2135 17.5944 46.9 13.4733L46.87 13.4167ZM23.5 3.91085H25C25.555 3.91085 26.05 3.91085 26.5 3.98168V8.94002H23.5V3.91085ZM8.5 26.0392H3.34C3.34 25.4867 3.265 24.9483 3.265 24.3817V23.2058H8.5V26.0392ZM12.265 14.4792L8.5 10.9942C9.16498 10.2777 9.88169 9.60551 10.645 8.98252L14.335 12.4675L12.265 14.4792ZM28.195 27.4983C27.6128 28.0533 26.8799 28.4459 26.0769 28.6331C25.2738 28.8203 24.4317 28.7948 23.643 28.5595C22.8542 28.3242 22.1494 27.8881 21.606 27.2991C21.0626 26.7102 20.7015 25.9912 20.5625 25.2211C20.4235 24.451 20.5119 23.6597 20.8181 22.934C21.1242 22.2082 21.6362 21.5762 22.2978 21.1074C22.9594 20.6386 23.7451 20.351 24.5684 20.2764C25.3918 20.2017 26.221 20.3428 26.965 20.6842L35.83 12.4533L37.945 14.4508L29.065 22.6817C29.4514 23.4754 29.5694 24.3623 29.403 25.2216C29.2366 26.081 28.7938 26.871 28.135 27.4842L28.195 27.4983ZM46.72 26.0817H41.38V23.2483H46.675V24.4242C46.675 24.8208 46.705 25.4867 46.66 26.0392L46.72 26.0817Z" fill="#1B3593"/>
</svg>
