<svg width="52" height="51" viewBox="0 0 52 51" fill="none" xmlns="http://www.w3.org/2000/svg">
<path d="M33.1604 18.7895C35.672 18.7895 37.7104 20.8939 37.7104 23.4868V32.2105H37.7V34.8947H14.3V26.8421H14.3052V23.4868C14.3052 20.8939 16.341 18.7895 18.8552 18.7895H33.1604ZM52 23.4868C52 22.241 51.5206 21.0462 50.6673 20.1653C49.814 19.2844 48.6567 18.7895 47.45 18.7895H38.675C39.6968 20.0645 40.3104 21.7018 40.3104 23.4868V26.8421H40.3V34.8947H50.05C50.5672 34.8947 51.0632 34.6826 51.4289 34.3051C51.7946 33.9276 52 33.4155 52 32.8816V23.4868ZM11.7 32.2105H11.7052V23.4868L11.7286 22.8963C11.8408 21.388 12.4041 19.953 13.3406 18.7895H4.55L4.1756 18.8056C3.03758 18.9026 1.97649 19.4378 1.20297 20.305C0.429445 21.1722 4.26519e-05 22.308 0 23.4868V32.8816C0 33.9928 0.8736 34.8947 1.95 34.8947H11.7V32.2105ZM26 0C28.0687 0 30.0526 0.8484 31.5154 2.35856C32.9782 3.86872 33.8 5.91694 33.8 8.05263C33.8 10.1883 32.9782 12.2365 31.5154 13.7467C30.0526 15.2569 28.0687 16.1053 26 16.1053C23.9313 16.1053 21.9473 15.2569 20.4846 13.7467C19.0218 12.2365 18.2 10.1883 18.2 8.05263C18.2 5.91694 19.0218 3.86872 20.4846 2.35856C21.9473 0.8484 23.9313 0 26 0ZM42.9 2.68421C44.6239 2.68421 46.2772 3.39121 47.4962 4.64968C48.7152 5.90815 49.4 7.61499 49.4 9.39474C49.4 11.1745 48.7152 12.8813 47.4962 14.1398C46.2772 15.3983 44.6239 16.1053 42.9 16.1053C41.1761 16.1053 39.5228 15.3983 38.3038 14.1398C37.0848 12.8813 36.4 11.1745 36.4 9.39474C36.4 7.61499 37.0848 5.90815 38.3038 4.64968C39.5228 3.39121 41.1761 2.68421 42.9 2.68421ZM9.1 2.68421C10.8239 2.68421 12.4772 3.39121 13.6962 4.64968C14.9152 5.90815 15.6 7.61499 15.6 9.39474C15.6 11.1745 14.9152 12.8813 13.6962 14.1398C12.4772 15.3983 10.8239 16.1053 9.1 16.1053C7.37609 16.1053 5.72279 15.3983 4.50381 14.1398C3.28482 12.8813 2.6 11.1745 2.6 9.39474C2.6 7.61499 3.28482 5.90815 4.50381 4.64968C5.72279 3.39121 7.37609 2.68421 9.1 2.68421ZM0 39.5921C0 39.0582 0.205446 38.5461 0.571141 38.1686C0.936837 37.791 1.43283 37.5789 1.95 37.5789H50.05C50.5672 37.5789 51.0632 37.791 51.4289 38.1686C51.7946 38.5461 52 39.0582 52 39.5921V40.9342C52 43.6038 50.9728 46.1641 49.1443 48.0518C47.3158 49.9395 44.8359 51 42.25 51H9.75C7.16414 51 4.68419 49.9395 2.85571 48.0518C1.02723 46.1641 0 43.6038 0 40.9342V39.5921Z" fill="#1B3593"/>
</svg>
