<svg width="42" height="37" viewBox="0 0 42 37" fill="none" xmlns="http://www.w3.org/2000/svg">
<path d="M2.62501 15.3682C2.05536 15.3689 1.50102 15.1445 1.04582 14.7288C0.59061 14.3132 0.259298 13.729 0.101983 13.0645C-0.0553328 12.4 -0.0300953 11.6914 0.173878 11.0459C0.377852 10.4004 0.749468 9.85306 1.23253 9.48664L8.28148 0.93158C8.77354 0.334802 9.44078 -0.000298244 10.1364 1.99177e-07C10.8321 0.000298643 11.4991 0.335971 11.9908 0.933172C12.4825 1.53037 12.7586 2.34018 12.7584 3.18445C12.7582 4.02873 12.4816 4.8383 11.9895 5.43508L9.04983 8.99969H28.8488C29.5443 8.99969 30.2113 9.335 30.7031 9.93187C31.1949 10.5287 31.4711 11.3383 31.4711 12.1824C31.4711 13.0265 31.1949 13.836 30.7031 14.4329C30.2113 15.0297 29.5443 15.3651 28.8488 15.3651H2.62501V15.3682ZM39.375 21.6318C39.9446 21.6311 40.499 21.8555 40.9542 22.2712C41.4094 22.6868 41.7407 23.271 41.898 23.9355C42.0553 24.6 42.0301 25.3086 41.8261 25.9541C41.6222 26.5996 41.2505 27.1469 40.7675 27.5134L33.7185 36.0684C33.4749 36.3639 33.1857 36.5983 32.8674 36.7581C32.5491 36.918 32.208 37.0001 31.8636 37C31.5191 36.9999 31.1781 36.9174 30.8599 36.7573C30.5417 36.5971 30.2526 36.3625 30.0092 36.0668C29.7657 35.7711 29.5726 35.4201 29.4409 35.0338C29.3092 34.6476 29.2415 34.2336 29.2416 33.8155C29.2417 33.3975 29.3097 32.9836 29.4416 32.5974C29.5735 32.2113 29.7668 31.8604 30.0105 31.5649L32.9502 28.0003H13.1512C12.4557 28.0003 11.7887 27.665 11.2969 27.0681C10.8051 26.4713 10.5289 25.6617 10.5289 24.8176C10.5289 23.9735 10.8051 23.164 11.2969 22.5671C11.7887 21.9703 12.4557 21.6349 13.1512 21.6349H39.375V21.6318Z" fill="#1B3593"/>
</svg>
