<svg width="58" height="51" viewBox="0 0 58 51" fill="none" xmlns="http://www.w3.org/2000/svg">
<path d="M56.4684 11.9402L30.8488 0.419232C29.6056 -0.139744 28.2467 -0.139744 27.0035 0.419232L1.45453 11.9402C0.583444 12.3387 0 13.386 0 14.57C0 15.754 0.583444 16.807 1.45453 17.1987L6.89384 19.6474C5.81631 21.4462 5.05778 23.5363 4.669 25.7893C3.62953 26.3414 2.9 27.6393 2.9 29.142C2.9 30.2751 3.33627 31.247 3.98206 31.9152L1.73184 48.878C1.58413 49.9868 2.26562 51 3.16191 51H8.43809C9.3341 51 10.0159 49.9892 9.86816 48.8791L7.61794 31.9164C8.26409 31.2481 8.7 30.178 8.7 29.142C8.7 27.9706 8.23111 26.9756 7.54725 26.3084C7.92696 24.3118 8.70475 22.4694 9.80744 20.9544L27.0806 28.7219C28.3237 29.2809 29.6827 29.2809 30.9258 28.7219L56.5455 17.2009C57.42 16.8013 58 15.754 58 14.57C58 13.386 57.42 12.3387 56.4684 11.9402ZM31.8184 32.1475C30.9666 32.5687 29.9878 32.785 29 32.785C28.0116 32.7854 27.0305 32.5715 26.1 32.1526L12.9413 26.239L11.6 42.4959C11.6 47.1976 19.3122 51 29 51C38.5247 51 46.4 47.1976 46.4 42.4993L45.0606 26.231L31.8184 32.1475Z" fill="#1B3593"/>
</svg>
