<svg width="63" height="51" viewBox="0 0 63 51" fill="none" xmlns="http://www.w3.org/2000/svg">
<path d="M40.1751 18.7895C43.218 18.7895 45.6876 20.8939 45.6876 23.4868V32.2105H45.675V34.8947H17.325V26.8421H17.3313V23.4868C17.3313 20.8939 19.7978 18.7895 22.8438 18.7895H40.1751ZM63 23.4868C63 22.241 62.4192 21.0462 61.3854 20.1653C60.3516 19.2844 58.9495 18.7895 57.4875 18.7895H46.8563C48.0942 20.0645 48.8376 21.7018 48.8376 23.4868V26.8421H48.825V34.8947H60.6375C61.2641 34.8947 61.865 34.6826 62.308 34.3051C62.7511 33.9276 63 33.4155 63 32.8816V23.4868ZM14.175 32.2105H14.1813V23.4868L14.2097 22.8963C14.3456 21.388 15.0281 19.953 16.1627 18.7895H5.5125L5.0589 18.8056C3.68014 18.9026 2.39459 19.4378 1.45744 20.305C0.520289 21.1722 5.16744e-05 22.308 0 23.4868V32.8816C0 33.9928 1.0584 34.8947 2.3625 34.8947H14.175V32.2105ZM31.5 0C34.0063 0 36.4099 0.8484 38.1822 2.35856C39.9544 3.86872 40.95 5.91694 40.95 8.05263C40.95 10.1883 39.9544 12.2365 38.1822 13.7467C36.4099 15.2569 34.0063 16.1053 31.5 16.1053C28.9937 16.1053 26.5901 15.2569 24.8178 13.7467C23.0456 12.2365 22.05 10.1883 22.05 8.05263C22.05 5.91694 23.0456 3.86872 24.8178 2.35856C26.5901 0.8484 28.9937 0 31.5 0ZM51.975 2.68421C54.0636 2.68421 56.0666 3.39121 57.5435 4.64968C59.0203 5.90815 59.85 7.61499 59.85 9.39474C59.85 11.1745 59.0203 12.8813 57.5435 14.1398C56.0666 15.3983 54.0636 16.1053 51.975 16.1053C49.8864 16.1053 47.8834 15.3983 46.4065 14.1398C44.9297 12.8813 44.1 11.1745 44.1 9.39474C44.1 7.61499 44.9297 5.90815 46.4065 4.64968C47.8834 3.39121 49.8864 2.68421 51.975 2.68421ZM11.025 2.68421C13.1136 2.68421 15.1166 3.39121 16.5935 4.64968C18.0703 5.90815 18.9 7.61499 18.9 9.39474C18.9 11.1745 18.0703 12.8813 16.5935 14.1398C15.1166 15.3983 13.1136 16.1053 11.025 16.1053C8.93642 16.1053 6.93338 15.3983 5.45653 14.1398C3.97969 12.8813 3.15 11.1745 3.15 9.39474C3.15 7.61499 3.97969 5.90815 5.45653 4.64968C6.93338 3.39121 8.93642 2.68421 11.025 2.68421ZM0 39.5921C0 39.0582 0.248905 38.5461 0.69196 38.1686C1.13501 37.791 1.73593 37.5789 2.3625 37.5789H60.6375C61.2641 37.5789 61.865 37.791 62.308 38.1686C62.7511 38.5461 63 39.0582 63 39.5921V40.9342C63 43.6038 61.7555 46.1641 59.5402 48.0518C57.3249 49.9395 54.3204 51 51.1875 51H11.8125C8.67963 51 5.67508 49.9395 3.4598 48.0518C1.24453 46.1641 0 43.6038 0 40.9342V39.5921Z" fill="#1B3593"/>
</svg>
