<svg width="63" height="51" viewBox="0 0 63 51" fill="none" xmlns="http://www.w3.org/2000/svg">
<path d="M34.0486 23.4136C28.9514 22.0459 26.4886 21.1882 26.4886 19.0091C26.4886 16.6445 29.6673 15.7868 31.6718 15.7868C35.4232 15.7868 36.7977 18.0818 37.1127 18.8932L41.6373 17.34C41.2077 16.2968 39.2891 12.8891 34.3636 12.1473V9.27273H28.6364V12.1936C21.5345 13.4918 21.5059 18.8236 21.5059 19.0555C21.5059 24.3177 27.9491 25.8014 31.0991 26.7286C35.6236 28.0268 37.6282 29.2091 37.6282 31.4345C37.6282 34.0541 34.6214 35.1668 31.9582 35.1668C26.7464 35.1668 25.2573 30.8318 25.0855 30.3218L20.3318 31.875C22.1359 36.9518 26.8609 38.3195 28.6364 38.7368V41.7273H34.3636V38.8527C35.5091 38.6441 42.6682 37.485 42.6682 31.3882C42.6682 28.1659 40.9214 25.3377 34.0486 23.4136ZM5.72727 46.3636H0V32.4545H17.1818V37.0909H10.08C14.6905 42.6777 22.5655 46.3636 31.5 46.3636C38.3354 46.3636 44.8907 44.1655 49.7241 40.2528C54.5574 36.3401 57.2727 31.0334 57.2727 25.5H63C63 39.5945 48.9109 51 31.5 51C20.8473 51 11.4259 46.7114 5.72727 40.1741V46.3636ZM0 25.5C0 11.4055 14.0891 0 31.5 0C42.1527 0 51.5741 4.28864 57.2727 10.8259V4.63636H63V18.5455H45.8182V13.9091H52.92C48.3095 8.32227 40.4345 4.63636 31.5 4.63636C24.6646 4.63636 18.1093 6.83449 13.2759 10.7472C8.44261 14.6599 5.72727 19.9666 5.72727 25.5H0Z" fill="#1B3593"/>
</svg>
