<svg width="59" height="55" viewBox="0 0 59 55" fill="none" xmlns="http://www.w3.org/2000/svg">
<path d="M27.6562 34.375H16.5938C15.1268 34.375 13.7199 34.9182 12.6826 35.8852C11.6453 36.8522 11.0625 38.1637 11.0625 39.5313V42.9688H14.75V39.5313C14.75 39.0754 14.9443 38.6382 15.29 38.3159C15.6358 37.9936 16.1048 37.8125 16.5938 37.8125H27.6562C28.1452 37.8125 28.6142 37.9936 28.96 38.3159C29.3057 38.6382 29.5 39.0754 29.5 39.5313V42.9688H33.1875V39.5313C33.1875 38.1637 32.6047 36.8522 31.5674 35.8852C30.5301 34.9182 29.1232 34.375 27.6562 34.375ZM22.125 32.6563C23.5836 32.6563 25.0095 32.253 26.2223 31.4976C27.4351 30.7422 28.3804 29.6684 28.9386 28.4122C29.4968 27.156 29.6429 25.7736 29.3583 24.44C29.0737 23.1064 28.3713 21.8814 27.3399 20.9199C26.3085 19.9584 24.9944 19.3036 23.5638 19.0384C22.1332 18.7731 20.6503 18.9092 19.3027 19.4296C17.9551 19.9499 16.8033 20.8311 15.9929 21.9617C15.1825 23.0923 14.75 24.4215 14.75 25.7813C14.75 27.6046 15.527 29.3533 16.9101 30.6426C18.2932 31.9319 20.169 32.6563 22.125 32.6563ZM22.125 22.3438C22.8543 22.3438 23.5673 22.5454 24.1737 22.9231C24.7801 23.3008 25.2527 23.8377 25.5318 24.4658C25.8109 25.0939 25.8839 25.7851 25.7416 26.4519C25.5994 27.1187 25.2482 27.7312 24.7325 28.2119C24.2167 28.6927 23.5597 29.0201 22.8444 29.1527C22.1291 29.2853 21.3877 29.2173 20.7139 28.9571C20.0401 28.6969 19.4641 28.2563 19.059 27.691C18.6538 27.1257 18.4375 26.4611 18.4375 25.7813C18.4375 24.8696 18.826 23.9952 19.5175 23.3506C20.2091 22.7059 21.147 22.3438 22.125 22.3438Z" fill="#1B3593"/>
<path d="M51.625 32.6562V48.125H7.375V13.75H29.5V10.3125H7.375C6.39701 10.3125 5.45908 10.6747 4.76754 11.3193C4.076 11.964 3.6875 12.8383 3.6875 13.75V48.125C3.6875 49.0367 4.076 49.911 4.76754 50.5557C5.45908 51.2003 6.39701 51.5625 7.375 51.5625H51.625C52.603 51.5625 53.5409 51.2003 54.2325 50.5557C54.924 49.911 55.3125 49.0367 55.3125 48.125V32.6562H51.625Z" fill="#1B3593"/>
<path d="M36.875 32.6562H47.9375V36.0938H36.875V32.6562ZM40.5625 39.5312H47.9375V42.9688H40.5625V39.5312ZM59 17.1875V13.75H55.1263C54.8885 12.6741 54.4302 11.6511 53.7767 10.737L56.5238 8.17609L53.9168 5.74578L51.1696 8.30672C50.1891 7.69744 49.0916 7.27026 47.9375 7.04859V3.4375H44.25V7.04859C43.0959 7.27026 41.9984 7.69744 41.0179 8.30672L38.2707 5.74578L35.6637 8.17609L38.4108 10.737C37.7573 11.6511 37.299 12.6741 37.0612 13.75H33.1875V17.1875H37.0612C37.299 18.2634 37.7573 19.2864 38.4108 20.2005L35.6637 22.7614L38.2707 25.1917L41.0179 22.6308C41.9984 23.2401 43.0959 23.6672 44.25 23.8889V27.5H47.9375V23.8889C49.0916 23.6672 50.1891 23.2401 51.1696 22.6308L53.9168 25.1917L56.5238 22.7614L53.7767 20.2005C54.4302 19.2864 54.8885 18.2634 55.1263 17.1875H59ZM46.0938 20.625C44.9998 20.625 43.9304 20.3226 43.0208 19.756C42.1111 19.1894 41.4022 18.3841 40.9835 17.442C40.5649 16.4998 40.4554 15.463 40.6688 14.4628C40.8822 13.4626 41.409 12.5438 42.1826 11.8227C42.9561 11.1016 43.9417 10.6105 45.0147 10.4116C46.0876 10.2126 47.1998 10.3147 48.2105 10.705C49.2212 11.0953 50.085 11.7561 50.6928 12.6041C51.3006 13.452 51.625 14.4489 51.625 15.4688C51.6235 16.8359 51.0403 18.1466 50.0033 19.1133C48.9663 20.08 47.5603 20.6236 46.0938 20.625Z" fill="#1B3593"/>
</svg>
