<svg width="43" height="43" viewBox="0 0 43 43" fill="none" xmlns="http://www.w3.org/2000/svg">
<circle cx="21.5" cy="21.5" r="21.5" fill="#E1E5F8"/>
<path d="M28.6663 27.5V25.8333C28.6663 24.9493 28.3151 24.1014 27.69 23.4763C27.0649 22.8512 26.2171 22.5 25.333 22.5H18.6663C17.7823 22.5 16.9344 22.8512 16.3093 23.4763C15.6842 24.1014 15.333 24.9493 15.333 25.8333V27.5" stroke="#453DE0" stroke-width="2" stroke-linecap="round" stroke-linejoin="round"/>
<path d="M22.0003 19.1667C23.8413 19.1667 25.3337 17.6743 25.3337 15.8333C25.3337 13.9924 23.8413 12.5 22.0003 12.5C20.1594 12.5 18.667 13.9924 18.667 15.8333C18.667 17.6743 20.1594 19.1667 22.0003 19.1667Z" stroke="#453DE0" stroke-width="2" stroke-linecap="round" stroke-linejoin="round"/>
</svg>
