<svg width="27" height="22" viewBox="0 0 27 22" fill="none" xmlns="http://www.w3.org/2000/svg">
<path d="M12.6562 13.75H7.59375C6.92242 13.75 6.27859 13.9673 5.80389 14.3541C5.32918 14.7409 5.0625 15.2655 5.0625 15.8125V17.1875H6.75V15.8125C6.75 15.6302 6.83889 15.4553 6.99713 15.3264C7.15536 15.1974 7.36997 15.125 7.59375 15.125H12.6562C12.88 15.125 13.0946 15.1974 13.2529 15.3264C13.4111 15.4553 13.5 15.6302 13.5 15.8125V17.1875H15.1875V15.8125C15.1875 15.2655 14.9208 14.7409 14.4461 14.3541C13.9714 13.9673 13.3276 13.75 12.6562 13.75ZM10.125 13.0625C10.7925 13.0625 11.445 12.9012 12 12.599C12.5551 12.2969 12.9876 11.8674 13.2431 11.3649C13.4985 10.8624 13.5654 10.3095 13.4352 9.776C13.3049 9.24256 12.9835 8.75255 12.5115 8.36796C12.0395 7.98336 11.4381 7.72145 10.7834 7.61534C10.1287 7.50923 9.45014 7.56369 8.83344 7.77183C8.21674 7.97997 7.68964 8.33245 7.31879 8.78468C6.94794 9.23692 6.75 9.7686 6.75 10.3125C6.75 11.0418 7.10558 11.7413 7.73851 12.257C8.37145 12.7728 9.22989 13.0625 10.125 13.0625ZM10.125 8.9375C10.4588 8.9375 10.785 9.01814 11.0625 9.16923C11.34 9.32032 11.5563 9.53506 11.684 9.78631C11.8118 10.0376 11.8452 10.314 11.7801 10.5808C11.715 10.8475 11.5542 11.0925 11.3182 11.2848C11.0822 11.4771 10.7816 11.608 10.4542 11.6611C10.1269 11.7141 9.78757 11.6869 9.47922 11.5828C9.17087 11.4788 8.90732 11.3025 8.7219 11.0764C8.53647 10.8503 8.4375 10.5845 8.4375 10.3125C8.4375 9.94783 8.61529 9.59809 8.93176 9.34023C9.24823 9.08237 9.67745 8.9375 10.125 8.9375Z" fill="#FEFEFF"/>
<path d="M23.625 13.0625V19.25H3.375V5.5H13.5V4.125H3.375C2.92745 4.125 2.49822 4.26987 2.18176 4.52773C1.86529 4.78559 1.6875 5.13533 1.6875 5.5V19.25C1.6875 19.6147 1.86529 19.9644 2.18176 20.2223C2.49822 20.4801 2.92745 20.625 3.375 20.625H23.625C24.0726 20.625 24.5018 20.4801 24.8182 20.2223C25.1347 19.9644 25.3125 19.6147 25.3125 19.25V13.0625H23.625Z" fill="#FEFEFF"/>
<path d="M16.875 13.0625H21.9375V14.4375H16.875V13.0625ZM18.5625 15.8125H21.9375V17.1875H18.5625V15.8125ZM27 6.875V5.5H25.2273C25.1185 5.06964 24.9088 4.66043 24.6097 4.29481L25.8668 3.27044L24.6738 2.29831L23.4166 3.32269C22.9679 3.07898 22.4657 2.9081 21.9375 2.81944V1.375H20.25V2.81944C19.7218 2.9081 19.2196 3.07898 18.7709 3.32269L17.5137 2.29831L16.3207 3.27044L17.5778 4.29481C17.2787 4.66043 17.069 5.06964 16.9602 5.5H15.1875V6.875H16.9602C17.069 7.30536 17.2787 7.71457 17.5778 8.08019L16.3207 9.10456L17.5137 10.0767L18.7709 9.05231C19.2196 9.29602 19.7218 9.4669 20.25 9.55556V11H21.9375V9.55556C22.4657 9.4669 22.9679 9.29602 23.4166 9.05231L24.6738 10.0767L25.8668 9.10456L24.6097 8.08019C24.9088 7.71457 25.1185 7.30536 25.2273 6.875H27ZM21.0938 8.25C20.5931 8.25 20.1037 8.12904 19.6875 7.90241C19.2712 7.67578 18.9468 7.35366 18.7552 6.97678C18.5636 6.59991 18.5135 6.18521 18.6111 5.78513C18.7088 5.38504 18.9499 5.01754 19.3039 4.72909C19.6579 4.44065 20.1089 4.24421 20.5999 4.16463C21.0909 4.08505 21.5999 4.12589 22.0624 4.282C22.5249 4.4381 22.9203 4.70246 23.1984 5.04164C23.4765 5.38081 23.625 5.77958 23.625 6.1875C23.6243 6.73434 23.3574 7.25863 22.8829 7.6453C22.4083 8.03198 21.7649 8.24945 21.0938 8.25Z" fill="#FEFEFF"/>
</svg>
