<svg width="27" height="22" viewBox="0 0 27 22" fill="none" xmlns="http://www.w3.org/2000/svg">
<path fill-rule="evenodd" clip-rule="evenodd" d="M13.5 20.9C20.2102 20.9 25.65 16.4675 25.65 11C25.65 5.53244 20.2102 1.1 13.5 1.1C6.78982 1.1 1.35 5.53244 1.35 11C1.35 16.4675 6.78982 20.9 13.5 20.9ZM13.5 22C20.9561 22 27 17.0753 27 11C27 4.92469 20.9561 0 13.5 0C6.04395 0 0 4.92469 0 11C0 17.0753 6.04395 22 13.5 22Z" fill="white"/>
<path d="M5.3999 17.3965C5.3999 16.8283 5.921 16.3482 6.6149 16.2855C11.8225 15.8158 15.2009 15.8581 20.397 16.2959C20.6565 16.3181 20.9025 16.4014 21.1048 16.5356C21.3071 16.6698 21.4571 16.8492 21.5364 17.0517C21.6158 17.2542 21.621 17.4712 21.5515 17.6761C21.4819 17.881 21.3407 18.0649 21.145 18.2055C15.0126 22.561 11.508 22.501 5.8319 18.2099C5.55515 18.0009 5.3999 17.7039 5.3999 17.397V17.3965Z" fill="white"/>
<path fill-rule="evenodd" clip-rule="evenodd" d="M20.3277 16.8426C15.1728 16.4081 11.843 16.3674 6.68868 16.8322C6.51901 16.8483 6.3626 16.9148 6.24939 17.0191C6.13618 17.1233 6.07412 17.2579 6.0751 17.397C6.0751 17.5543 6.15543 17.7034 6.2911 17.8068C9.1045 19.9331 11.2362 20.8939 13.3199 20.9C15.411 20.906 17.6574 19.9529 20.7017 17.7914C20.7984 17.7213 20.868 17.6297 20.9021 17.528C20.9362 17.4262 20.9332 17.3185 20.8936 17.2181C20.854 17.1176 20.7794 17.0287 20.679 16.9622C20.5785 16.8956 20.4565 16.8543 20.3277 16.8432V16.8426ZM6.54085 15.7388C11.8032 15.2641 15.2308 15.307 20.4675 15.7487C20.8578 15.7819 21.2278 15.9071 21.5322 16.109C21.8365 16.3109 22.062 16.5808 22.1811 16.8855C22.3001 17.1902 22.3076 17.5166 22.2025 17.8247C22.0973 18.1328 21.8843 18.4093 21.5893 18.6202C18.5012 20.8136 15.9294 22.0082 13.3158 22C10.6948 21.9923 8.23645 20.7773 5.37378 18.6131C5.16881 18.4575 5.00542 18.2692 4.89381 18.0599C4.7822 17.8506 4.72477 17.6247 4.7251 17.3965C4.72412 16.9864 4.90884 16.5905 5.24388 16.2845C5.57893 15.9785 6.04074 15.784 6.54085 15.7382V15.7388Z" fill="white"/>
<path d="M18.9001 8.79997C18.9001 9.96692 18.3312 11.0861 17.3185 11.9112C16.3058 12.7364 14.9323 13.2 13.5001 13.2C12.0679 13.2 10.6944 12.7364 9.68172 11.9112C8.66902 11.0861 8.1001 9.96692 8.1001 8.79997C8.1001 7.63302 8.66902 6.51386 9.68172 5.68871C10.6944 4.86355 12.0679 4.39998 13.5001 4.39998C14.9323 4.39998 16.3058 4.86355 17.3185 5.68871C18.3312 6.51386 18.9001 7.63302 18.9001 8.79997Z" fill="white"/>
<path fill-rule="evenodd" clip-rule="evenodd" d="M13.5001 12.1C14.5742 12.1 15.6044 11.7523 16.3639 11.1334C17.1234 10.5146 17.5501 9.67518 17.5501 8.79997C17.5501 7.92476 17.1234 7.08539 16.3639 6.46652C15.6044 5.84765 14.5742 5.49998 13.5001 5.49998C12.426 5.49998 11.3958 5.84765 10.6363 6.46652C9.87679 7.08539 9.4501 7.92476 9.4501 8.79997C9.4501 9.67518 9.87679 10.5146 10.6363 11.1334C11.3958 11.7523 12.426 12.1 13.5001 12.1ZM13.5001 13.2C14.9323 13.2 16.3058 12.7364 17.3185 11.9112C18.3312 11.0861 18.9001 9.96692 18.9001 8.79997C18.9001 7.63302 18.3312 6.51386 17.3185 5.68871C16.3058 4.86355 14.9323 4.39998 13.5001 4.39998C12.0679 4.39998 10.6944 4.86355 9.68172 5.68871C8.66902 6.51386 8.1001 7.63302 8.1001 8.79997C8.1001 9.96692 8.66902 11.0861 9.68172 11.9112C10.6944 12.7364 12.0679 13.2 13.5001 13.2Z" fill="white"/>
</svg>
