<svg width="27" height="22" viewBox="0 0 27 22" fill="none" xmlns="http://www.w3.org/2000/svg">
<path d="M17.2179 8.10526C18.522 8.10526 19.5804 9.01305 19.5804 10.1316V13.8947H19.575V15.0526H7.425V11.5789H7.4277V10.1316C7.4277 9.01305 8.48475 8.10526 9.7902 8.10526H17.2179ZM27 10.1316C27 9.59417 26.7511 9.07876 26.308 8.69876C25.865 8.31875 25.2641 8.10526 24.6375 8.10526H20.0813C20.6118 8.65526 20.9304 9.36158 20.9304 10.1316V11.5789H20.925V15.0526H25.9875C26.256 15.0526 26.5136 14.9611 26.7034 14.7983C26.8933 14.6354 27 14.4145 27 14.1842V10.1316ZM6.075 13.8947H6.0777V10.1316L6.08985 9.87684C6.14813 9.2262 6.44061 8.60716 6.92685 8.10526H2.3625L2.1681 8.11221C1.5772 8.15406 1.02625 8.38494 0.624618 8.75902C0.222981 9.13311 2.21462e-05 9.62304 0 10.1316V14.1842C0 14.6636 0.4536 15.0526 1.0125 15.0526H6.075V13.8947ZM13.5 0C14.5741 0 15.6043 0.365977 16.3638 1.01742C17.1233 1.66886 17.55 2.55241 17.55 3.47368C17.55 4.39496 17.1233 5.27851 16.3638 5.92995C15.6043 6.58139 14.5741 6.94737 13.5 6.94737C12.4259 6.94737 11.3957 6.58139 10.6362 5.92995C9.87669 5.27851 9.45 4.39496 9.45 3.47368C9.45 2.55241 9.87669 1.66886 10.6362 1.01742C11.3957 0.365977 12.4259 0 13.5 0ZM22.275 1.15789C23.1701 1.15789 24.0286 1.46288 24.6615 2.00574C25.2944 2.54861 25.65 3.2849 25.65 4.05263C25.65 4.82036 25.2944 5.55665 24.6615 6.09952C24.0286 6.64239 23.1701 6.94737 22.275 6.94737C21.3799 6.94737 20.5215 6.64239 19.8885 6.09952C19.2556 5.55665 18.9 4.82036 18.9 4.05263C18.9 3.2849 19.2556 2.54861 19.8885 2.00574C20.5215 1.46288 21.3799 1.15789 22.275 1.15789ZM4.725 1.15789C5.62011 1.15789 6.47855 1.46288 7.11149 2.00574C7.74442 2.54861 8.1 3.2849 8.1 4.05263C8.1 4.82036 7.74442 5.55665 7.11149 6.09952C6.47855 6.64239 5.62011 6.94737 4.725 6.94737C3.82989 6.94737 2.97145 6.64239 2.33851 6.09952C1.70558 5.55665 1.35 4.82036 1.35 4.05263C1.35 3.2849 1.70558 2.54861 2.33851 2.00574C2.97145 1.46288 3.82989 1.15789 4.725 1.15789ZM0 17.0789C0 16.8486 0.106674 16.6277 0.296554 16.4649C0.486435 16.302 0.743968 16.2105 1.0125 16.2105H25.9875C26.256 16.2105 26.5136 16.302 26.7034 16.4649C26.8933 16.6277 27 16.8486 27 17.0789V17.6579C27 18.8095 26.4666 19.9139 25.5172 20.7282C24.5678 21.5425 23.2802 22 21.9375 22H5.0625C3.71984 22 2.43217 21.5425 1.48277 20.7282C0.533369 19.9139 0 18.8095 0 17.6579V17.0789Z" fill="white"/>
</svg>
