<svg width="27" height="22" viewBox="0 0 27 22" fill="none" xmlns="http://www.w3.org/2000/svg">
<path d="M14.5923 10.1C12.4077 9.51 11.3523 9.14 11.3523 8.2C11.3523 7.18 12.7145 6.81 13.5736 6.81C15.1814 6.81 15.7705 7.8 15.9055 8.15L17.8445 7.48C17.6605 7.03 16.8382 5.56 14.7273 5.24V4H12.2727V5.26C9.22909 5.82 9.21682 8.12 9.21682 8.22C9.21682 10.49 11.9782 11.13 13.3282 11.53C15.2673 12.09 16.1264 12.6 16.1264 13.56C16.1264 14.69 14.8377 15.17 13.6964 15.17C11.4627 15.17 10.8245 13.3 10.7509 13.08L8.71364 13.75C9.48682 15.94 11.5118 16.53 12.2727 16.71V18H14.7273V16.76C15.2182 16.67 18.2864 16.17 18.2864 13.54C18.2864 12.15 17.5377 10.93 14.5923 10.1ZM2.45455 20H0V14H7.36364V16H4.32C6.29591 18.41 9.67091 20 13.5 20C16.4294 20 19.2389 19.0518 21.3103 17.364C23.3817 15.6761 24.5455 13.3869 24.5455 11H27C27 17.08 20.9618 22 13.5 22C8.93455 22 4.89682 20.15 2.45455 17.33V20ZM0 11C0 4.92 6.03818 0 13.5 0C18.0655 0 22.1032 1.85 24.5455 4.67V2H27V8H19.6364V6H22.68C20.7041 3.59 17.3291 2 13.5 2C10.5706 2 7.76111 2.94821 5.68968 4.63604C3.61826 6.32387 2.45455 8.61305 2.45455 11H0Z" fill="white"/>
</svg>
