<svg width="27" height="22" viewBox="0 0 27 22" fill="none" xmlns="http://www.w3.org/2000/svg">
<path d="M1.68751 9.13787C1.32131 9.13828 0.964942 9.00483 0.67231 8.75769C0.379678 8.51055 0.166692 8.16317 0.0655603 7.76808C-0.0355711 7.37299 -0.019347 6.95167 0.111779 6.56785C0.242905 6.18403 0.481801 5.85857 0.79234 5.6407L5.32381 0.553913C5.64013 0.199071 6.06908 -0.000177334 6.51627 1.18429e-07C6.96347 0.000177571 7.39228 0.199767 7.70839 0.554859C8.02449 0.909952 8.20199 1.39146 8.20183 1.89346C8.20167 2.39546 8.02387 2.87683 7.70755 3.23167L5.81775 5.35117H18.5456C18.9927 5.35117 19.4215 5.55054 19.7377 5.90544C20.0538 6.26033 20.2315 6.74167 20.2315 7.24357C20.2315 7.74547 20.0538 8.22681 19.7377 8.58171C19.4215 8.9366 18.9927 9.13598 18.5456 9.13598H1.68751V9.13787ZM25.3125 12.8621C25.6787 12.8617 26.0351 12.9952 26.3277 13.2423C26.6203 13.4894 26.8333 13.8368 26.9344 14.2319C27.0356 14.627 27.0193 15.0483 26.8882 15.4322C26.7571 15.816 26.5182 16.1414 26.2077 16.3593L21.6762 21.4461C21.5196 21.6218 21.3336 21.7611 21.129 21.8562C20.9244 21.9512 20.7052 22.0001 20.4837 22C20.2623 21.9999 20.0431 21.9509 19.8385 21.8557C19.634 21.7605 19.4481 21.621 19.2916 21.4451C19.1351 21.2693 19.011 21.0606 18.9263 20.8309C18.8416 20.6013 18.7981 20.3551 18.7982 20.1065C18.7982 19.858 18.8419 19.6119 18.9267 19.3823C19.0116 19.1526 19.1358 18.944 19.2925 18.7683L21.1822 16.6488H8.45436C8.00725 16.6488 7.57846 16.4495 7.26231 16.0946C6.94616 15.7397 6.76855 15.2583 6.76855 14.7564C6.76855 14.2545 6.94616 13.7732 7.26231 13.4183C7.57846 13.0634 8.00725 12.864 8.45436 12.864H25.3125V12.8621Z" fill="white"/>
</svg>
