<svg width="27" height="22" viewBox="0 0 27 22" fill="none" xmlns="http://www.w3.org/2000/svg">
<path d="M26.287 5.15068L14.3606 0.180845C13.7819 -0.0602818 13.1493 -0.0602818 12.5706 0.180845L0.677109 5.15068C0.271603 5.32256 0 5.77437 0 6.2851C0 6.79584 0.271603 7.25009 0.677109 7.41903L3.2092 8.47537C2.70759 9.25129 2.35448 10.1529 2.1735 11.1248C1.68961 11.363 1.35 11.9228 1.35 12.5711C1.35 13.0598 1.55309 13.4791 1.85372 13.7674L0.806203 21.0846C0.737438 21.5629 1.05469 22 1.47192 22H3.92808C4.34519 22 4.66256 21.564 4.5938 21.0851L3.54628 13.7678C3.84708 13.4796 4.05 13.018 4.05 12.5711C4.05 12.0657 3.83172 11.6365 3.51338 11.3487C3.69014 10.4875 4.05221 9.69266 4.56553 9.03914L12.6065 12.3898C13.1852 12.631 13.8178 12.631 14.3965 12.3898L26.3229 7.42001C26.73 7.24764 27 6.79584 27 6.2851C27 5.77437 26.73 5.32256 26.287 5.15068ZM14.812 13.8675C14.4155 14.0492 13.9598 14.1426 13.5 14.1426C13.0399 14.1427 12.5832 14.0504 12.15 13.8698L6.02438 11.3188L5.4 18.3316C5.4 20.3598 8.99016 22 13.5 22C17.9339 22 21.6 20.3598 21.6 18.333L20.9765 11.3153L14.812 13.8675Z" fill="white"/>
</svg>
