<svg width="62" height="37" viewBox="0 0 62 37" fill="none" xmlns="http://www.w3.org/2000/svg">
<path d="M3.87104 15.3682C3.03099 15.3689 2.21352 15.1445 1.54224 14.7288C0.870957 14.3132 0.38238 13.729 0.150391 13.0645C-0.0815979 12.4 -0.0443808 11.6914 0.256414 11.0459C0.557209 10.4004 1.10522 9.85306 1.81758 9.48664L12.2125 0.93158C12.9381 0.334802 13.9221 -0.000298244 14.9479 1.99177e-07C15.9738 0.000298643 16.9574 0.335971 17.6826 0.933172C18.4077 1.53037 18.8148 2.34018 18.8145 3.18445C18.8141 4.02873 18.4063 4.8383 17.6806 5.43508L13.3456 8.99969H42.5425C43.5682 8.99969 44.5518 9.335 45.277 9.93187C46.0023 10.5287 46.4097 11.3383 46.4097 12.1824C46.4097 13.0265 46.0023 13.836 45.277 14.4329C44.5518 15.0297 43.5682 15.3651 42.5425 15.3651H3.87104V15.3682ZM58.0653 21.6318C58.9053 21.6311 59.7228 21.8555 60.3941 22.2712C61.0653 22.6868 61.5539 23.271 61.7859 23.9355C62.0179 24.6 61.9807 25.3086 61.6799 25.9541C61.3791 26.5996 60.8311 27.1469 60.1187 27.5134L49.7238 36.0684C49.3645 36.3639 48.938 36.5983 48.4687 36.7581C47.9993 36.918 47.4963 37.0001 46.9884 37C46.4804 36.9999 45.9775 36.9174 45.5083 36.7573C45.0391 36.5971 44.6128 36.3625 44.2537 36.0668C43.8947 35.7711 43.6099 35.4201 43.4157 35.0338C43.2215 34.6476 43.1216 34.2336 43.1218 33.8155C43.122 33.3975 43.2222 32.9836 43.4168 32.5974C43.6113 32.2113 43.8964 31.8604 44.2557 31.5649L48.5908 28.0003H19.3938C18.3681 28.0003 17.3845 27.665 16.6593 27.0681C15.9341 26.4713 15.5266 25.6617 15.5266 24.8176C15.5266 23.9735 15.9341 23.164 16.6593 22.5671C17.3845 21.9703 18.3681 21.6349 19.3938 21.6349H58.0653V21.6318Z" fill="#1B3593"/>
</svg>
