<svg width="63" height="51" viewBox="0 0 63 51" fill="none" xmlns="http://www.w3.org/2000/svg">
<path d="M61.3364 11.9402L33.5081 0.419232C32.1578 -0.139744 30.6817 -0.139744 29.3314 0.419232L1.57992 11.9402C0.633741 12.3387 0 13.386 0 14.57C0 15.754 0.633741 16.807 1.57992 17.1987L7.48814 19.6474C6.31772 21.4462 5.4938 23.5363 5.0715 25.7893C3.94242 26.3414 3.15 27.6393 3.15 29.142C3.15 30.2751 3.62388 31.247 4.32534 31.9152L1.88114 48.878C1.72069 49.9868 2.46094 51 3.43448 51H9.16552C10.1388 51 10.8793 49.9892 10.7189 48.8791L8.27466 31.9164C8.97652 31.2481 9.45 30.178 9.45 29.142C9.45 27.9706 8.94068 26.9756 8.19788 26.3084C8.61032 24.3118 9.45516 22.4694 10.6529 20.9544L29.4151 28.7219C30.7654 29.2809 32.2415 29.2809 33.5918 28.7219L61.4201 17.2009C62.37 16.8013 63 15.754 63 14.57C63 13.386 62.37 12.3387 61.3364 11.9402ZM34.5614 32.1475C33.6361 32.5687 32.573 32.785 31.5 32.785C30.4264 32.7854 29.3607 32.5715 28.35 32.1526L14.0569 26.239L12.6 42.4959C12.6 47.1976 20.977 51 31.5 51C41.8458 51 50.4 47.1976 50.4 42.4993L48.9451 26.231L34.5614 32.1475Z" fill="#1B3593"/>
</svg>
